<svg xmlns="http://www.w3.org/2000/svg" viewBox="0 0 512 512" role="img" aria-labelledby="title desc">
  <title id="title">Aiplun Studio</title>
  <desc id="desc">A friendly Aiplun Studio icon with a soft speech bubble, rounded A mark, and small leaf.</desc>
  <defs>
    <linearGradient id="bg" x1="62" y1="42" x2="450" y2="470" gradientUnits="userSpaceOnUse">
      <stop stop-color="#FFF8E8"/>
      <stop offset="0.55" stop-color="#ECF7F4"/>
      <stop offset="1" stop-color="#DCEFEA"/>
    </linearGradient>
    <radialGradient id="warm" cx="0" cy="0" r="1" gradientUnits="userSpaceOnUse" gradientTransform="translate(150 120) rotate(48) scale(310)">
      <stop stop-color="#F7DDB4" stop-opacity="0.72"/>
      <stop offset="0.5" stop-color="#F7DDB4" stop-opacity="0.18"/>
      <stop offset="1" stop-color="#ECF7F4" stop-opacity="0"/>
    </radialGradient>
    <linearGradient id="bubble" x1="132" y1="126" x2="388" y2="382" gradientUnits="userSpaceOnUse">
      <stop stop-color="#FFFFFF"/>
      <stop offset="1" stop-color="#F7F0DF"/>
    </linearGradient>
    <linearGradient id="mark" x1="150" y1="356" x2="346" y2="152" gradientUnits="userSpaceOnUse">
      <stop stop-color="#10314B"/>
      <stop offset="0.55" stop-color="#247083"/>
      <stop offset="1" stop-color="#10263C"/>
    </linearGradient>
    <linearGradient id="sand" x1="196" y1="286" x2="318" y2="252" gradientUnits="userSpaceOnUse">
      <stop stop-color="#B58A55"/>
      <stop offset="0.55" stop-color="#EEDDC0"/>
      <stop offset="1" stop-color="#A77743"/>
    </linearGradient>
    <filter id="shadow" x="-35%" y="-35%" width="170%" height="170%">
      <feDropShadow dx="0" dy="18" stdDeviation="18" flood-color="#10314B" flood-opacity="0.16"/>
    </filter>
  </defs>
  <rect width="512" height="512" rx="126" fill="url(#bg)"/>
  <rect width="512" height="512" rx="126" fill="url(#warm)"/>
  <path d="M105 356C158 329 210 329 256 354C303 379 355 378 407 350" fill="none" stroke="#FFFFFF" stroke-width="16" stroke-linecap="round" opacity="0.46"/>
  <g filter="url(#shadow)">
    <path d="M124 244C124 181 175 132 244 132H280C348 132 394 177 394 238C394 302 344 349 274 349H232L174 386C169 389 162 385 163 379L170 335C142 315 124 283 124 244Z" fill="url(#bubble)" stroke="#D8C5A4" stroke-width="9" stroke-linejoin="round"/>
    <path d="M171 326L232 181C243 155 278 155 289 181L350 326" fill="none" stroke="url(#mark)" stroke-width="42" stroke-linecap="round" stroke-linejoin="round"/>
    <path d="M209 274C239 258 286 258 317 274" fill="none" stroke="url(#sand)" stroke-width="24" stroke-linecap="round"/>
    <path d="M235 202C260 194 288 207 295 232C302 260 278 280 247 278C226 277 209 268 199 255" fill="none" stroke="#FFFFFF" stroke-width="13" stroke-linecap="round" opacity="0.88"/>
  </g>
  <path d="M346 144C374 132 399 145 407 172C380 184 354 172 346 144Z" fill="#7EAA8E"/>
  <path d="M355 153C371 156 386 162 398 172" fill="none" stroke="#F4FAF7" stroke-width="6" stroke-linecap="round"/>
  <circle cx="143" cy="170" r="12" fill="#D9C4A2" opacity="0.54"/>
  <circle cx="378" cy="114" r="10" fill="#EEE0C7" opacity="0.86"/>
</svg>
